<?xml version="1.0" encoding="utf-8"?><!-- Uploaded to: SVG Repo, www.svgrepo.com, Generator: SVG Repo Mixer Tools -->
<svg width="800px" height="800px" viewBox="0 0 24 24" fill="none" xmlns="http://www.w3.org/2000/svg">
<path opacity="0.15" d="M8 15C5 15 4 16 4 16V4C4 4 5 3 8 3C11 3 13 5 16 5C19 5 20 4 20 4V16C20 16 19 17 16 17C13 17 11 15 8 15Z" fill="#000000"/>
<path d="M4 21.1111V16.1111M4 16.1111V4.11111C4 4.11111 7 1.61111 12 4.11111C17 6.61111 20 4.11111 20 4.11111V16.1111C20 16.1111 17 18.6111 12 16.1111C7 13.6111 4 16.1111 4 16.1111Z" stroke="#000000" stroke-width="1.5" stroke-linecap="round" stroke-linejoin="round"/>
</svg>